<svg width="119" height="31" viewBox="0 0 119 31" fill="none" xmlns="http://www.w3.org/2000/svg">
<g clip-path="url(#clip0_861_19400)">
<path d="M29.5127 13.546L20.0685 13.546C19.4328 11.0926 17.208 9.27528 14.5745 9.27528C11.4415 9.27528 8.89884 11.8195 8.89884 14.9545C8.89884 18.0894 11.4415 20.6336 14.5745 20.6336C17.208 20.6336 19.4328 18.8163 20.0685 16.3629H26.6068C25.8803 22.451 20.7495 27.176 14.5745 27.176C7.89993 27.176 2.45133 21.724 2.45133 15.0453C2.45133 8.36661 7.89993 2.9146 14.5745 2.9146C16.6177 2.9146 18.5701 3.41437 20.2501 4.32303C20.0685 4.8228 19.9777 5.32257 19.9777 5.86777C19.9777 8.41204 22.0209 10.4565 24.5636 10.4565C27.1062 10.4565 29.1495 8.41204 29.1495 5.86777C29.1495 3.27807 27.1062 1.23356 24.5636 1.23356C23.6555 1.23356 22.7928 1.50616 22.0663 1.9605C19.8414 0.688361 17.2988 -0.0385742 14.5745 -0.0385742C6.26535 -0.0385742 -0.5 6.68557 -0.5 14.9999C-0.5 23.3142 6.26534 30.0383 14.5291 30.0383C22.7928 30.0383 29.5581 23.2688 29.5581 14.9999C29.6035 14.5001 29.5581 14.0458 29.5127 13.546ZM14.5745 17.8168C13.0307 17.8168 11.7594 16.5446 11.7594 14.9999C11.7594 13.4551 13.0307 12.183 14.5745 12.183C16.1182 12.183 17.3896 13.4551 17.3896 14.9999C17.3442 16.5446 16.1182 17.8168 14.5745 17.8168ZM24.5636 4.1413C25.5171 4.1413 26.2435 4.91367 26.2435 5.82234C26.2435 6.77644 25.4717 7.50337 24.5636 7.50337C23.6101 7.50337 22.8836 6.73101 22.8836 5.82234C22.8836 4.86824 23.6555 4.1413 24.5636 4.1413Z" fill="white"/>
<path fill-rule="evenodd" clip-rule="evenodd" d="M44.5581 9.60485C43.5868 9.60485 42.8005 9.92861 42.2918 10.5299C41.8293 11.1311 41.5518 12.1024 41.5518 13.3974V16.3112C41.5518 17.6062 41.8293 18.5775 42.338 19.1788C42.8468 19.78 43.7255 20.0575 44.5581 20.0575C45.1131 20.0575 45.8068 20.0113 46.2231 19.8263V15.895L44.5581 15.895C44.4656 15.895 44.3731 15.8487 44.2806 15.7562C44.1881 15.6637 44.1418 15.5712 44.1418 15.4787V14.0449C44.1418 13.9524 44.1881 13.8599 44.2806 13.7674C44.3731 13.6749 44.4656 13.6287 44.5581 13.6287H48.5356C48.6281 13.6287 48.7206 13.6749 48.8131 13.7674C48.9056 13.8599 48.9519 13.9524 48.9519 14.0449V20.9825C48.9519 21.26 48.8131 21.445 48.5819 21.5838C47.7494 22.0463 46.2231 22.4163 44.4193 22.4163C43.9106 22.4163 43.2168 22.3701 42.7543 22.2313C42.2918 22.0926 41.8293 21.9076 41.3205 21.5838C40.858 21.3063 40.3955 20.9363 40.0255 20.4738C39.6555 20.0575 39.3317 19.4563 39.1005 18.7163C38.8692 18.0225 38.7305 17.19 38.7305 16.265V13.3512C38.7305 12.2411 38.9155 11.2236 39.2392 10.3911C39.563 9.5586 40.0255 8.91109 40.5805 8.44858C41.1355 8.03233 41.7368 7.70857 42.338 7.47732C42.9393 7.24607 43.633 7.15356 44.2806 7.15356C45.9918 7.15356 47.8881 7.66232 49.1369 8.77234C49.3219 8.95734 49.2294 9.1886 49.1369 9.32735C48.9981 9.5586 48.5356 10.2061 48.3969 10.3911C48.2581 10.5761 48.0731 10.6224 47.8881 10.5299C47.8124 10.492 47.7384 10.4546 47.6658 10.4179C46.7622 9.96145 46.0563 9.60485 44.5581 9.60485ZM60.8382 21.815C60.8382 21.9537 60.792 22.0462 60.7457 22.0925C60.6995 22.1387 60.5607 22.185 60.422 22.2312C59.2195 22.4162 57.9244 22.5087 56.5832 22.5087C55.8894 22.5087 55.2419 22.4625 54.7331 22.3237C54.2244 22.2312 53.7156 22 53.2994 21.7225C52.8368 21.445 52.5131 21.0287 52.2818 20.4737C52.0506 19.9187 51.9581 19.2249 51.9581 18.3924V11.3623C51.9581 10.5298 52.0506 9.83603 52.2818 9.28102C52.5131 8.72602 52.8368 8.30976 53.2994 8.03225C53.7619 7.75475 54.2244 7.5235 54.7331 7.43099C55.2419 7.33849 55.8431 7.24599 56.5832 7.24599C57.9244 7.24599 59.2195 7.33849 60.422 7.5235C60.5607 7.56974 60.6532 7.61599 60.7457 7.66223L60.7457 7.66225C60.792 7.7085 60.8382 7.801 60.8382 7.93975V9.23477C60.8382 9.32727 60.792 9.41978 60.6995 9.51228C60.607 9.60478 60.5145 9.65103 60.422 9.65103L56.3057 9.65103C55.7044 9.65103 55.2881 9.78978 55.0569 10.021C54.8256 10.2523 54.6869 10.7148 54.6869 11.3623V13.5361L60.1445 13.5361C60.237 13.5361 60.3295 13.5823 60.422 13.6748C60.5145 13.7673 60.5607 13.8598 60.5607 13.9523V15.3861C60.5607 15.4786 60.5145 15.5711 60.422 15.6636C60.3295 15.7561 60.237 15.8024 60.1445 15.8024H54.6869V18.3924C54.6869 19.0399 54.8256 19.5024 55.0569 19.7337C55.2881 19.9649 55.7044 20.1037 56.3057 20.1037H60.422C60.5145 20.1037 60.607 20.1499 60.6995 20.2425C60.792 20.335 60.8382 20.4275 60.8382 20.52V21.815ZM72.4472 21.815C72.4472 21.9537 72.4009 22.0462 72.3547 22.0925C72.3084 22.1387 72.1697 22.185 72.0309 22.2312C70.8284 22.4162 69.5334 22.5087 68.1921 22.5087C67.4984 22.5087 66.8508 22.4625 66.3421 22.3237C65.8333 22.2312 65.3246 22 64.9083 21.7225C64.4458 21.445 64.1221 21.0287 63.8908 20.4737C63.6595 19.9187 63.567 19.2249 63.567 18.3924V11.3623C63.567 10.5298 63.6595 9.83603 63.8908 9.28102C64.1221 8.72602 64.4458 8.30976 64.9083 8.03225C65.3708 7.75475 65.8333 7.5235 66.3421 7.43099C66.8508 7.33849 67.4521 7.24599 68.1921 7.24599C69.5334 7.24599 70.8284 7.33849 72.0309 7.5235C72.1697 7.56975 72.2622 7.616 72.3547 7.66225C72.4009 7.7085 72.4472 7.801 72.4472 7.93975V9.23477C72.4472 9.32727 72.4009 9.41978 72.3084 9.51228C72.2159 9.60478 72.1234 9.65103 72.0309 9.65103H67.9146C67.3134 9.65103 66.8971 9.78978 66.6658 10.021C66.4346 10.2523 66.2958 10.7148 66.2958 11.3623V13.5361H71.7534C71.8459 13.5361 71.9384 13.5823 72.0309 13.6748C72.1234 13.7673 72.1697 13.8598 72.1697 13.9523V15.3861C72.1697 15.4786 72.1234 15.5711 72.0309 15.6636C71.9384 15.7561 71.8459 15.8024 71.7534 15.8024H66.2958V18.3924C66.2958 19.0399 66.4346 19.5024 66.6658 19.7337C66.8971 19.9649 67.3134 20.1037 67.9146 20.1037H72.0309C72.1234 20.1037 72.2159 20.1499 72.3084 20.2425C72.4009 20.335 72.4472 20.4275 72.4472 20.52V21.815ZM80.541 8.95739H84.4723C84.7498 8.95739 84.8885 8.81864 84.8423 8.63364V7.75487C84.8423 7.52362 84.7498 7.38487 84.4723 7.38487L74.7596 7.38487C74.6671 7.38487 74.5746 7.43112 74.4821 7.47737C74.3896 7.56987 74.3434 7.66237 74.3434 7.75487V8.63364C74.3434 8.72614 74.3896 8.81864 74.4821 8.86489C74.5746 8.91114 74.6671 8.95739 74.7596 8.95739L78.6909 8.95739V22.0001C78.6909 22.0926 78.7372 22.1851 78.7834 22.2776C78.8759 22.3701 78.9684 22.4164 79.0609 22.4164H80.171C80.3097 22.4164 80.4022 22.3701 80.4485 22.2776C80.4947 22.1851 80.541 22.0926 80.541 22.0001V8.95739ZM95.2489 22.3237C95.2027 22.37 95.1564 22.4162 95.1102 22.4162C94.9252 22.4625 94.6477 22.4625 94.3239 22.4625C94.0002 22.4625 93.6764 22.4625 93.3064 22.5087H92.1964H91.1789C89.7451 22.5087 88.6813 22.2312 87.9413 21.63C87.2013 21.075 86.8776 20.1037 86.8776 18.7624V10.9923C86.8776 9.65103 87.2476 8.67976 87.9413 8.12476C88.6813 7.56975 89.7451 7.24599 91.1789 7.24599H92.1964L93.3064 7.24599C93.6764 7.24599 94.0002 7.24599 94.3239 7.29224C94.5083 7.29224 94.6777 7.30724 94.8235 7.32016C94.9338 7.32992 95.0305 7.33849 95.1102 7.33849C95.1564 7.33849 95.2489 7.38474 95.2489 7.43099C95.2952 7.47724 95.2952 7.52349 95.2952 7.61597V7.616V8.63351C95.2952 8.81852 95.2027 8.86477 95.0639 8.86477H91.1789C90.6239 8.86477 90.2076 8.91102 89.8839 8.95727C89.5601 9.04977 89.3288 9.14227 89.1438 9.32727C88.9588 9.51228 88.8663 9.69728 88.7738 9.97479C88.7276 10.2523 88.6813 10.576 88.6813 10.9461V13.8136H94.8789C94.9714 13.8136 95.0639 13.8598 95.1564 13.9523C95.2489 14.0448 95.2952 14.1374 95.2952 14.2299V14.9699C95.2952 15.0624 95.2489 15.1549 95.1564 15.2474C95.0639 15.3399 94.9714 15.3861 94.8789 15.3861L88.6813 15.3861V18.8087C88.6813 19.1787 88.7276 19.5024 88.7738 19.7799C88.8201 20.0574 88.9588 20.2887 89.1438 20.4275C89.3288 20.6125 89.5601 20.705 89.8839 20.7975C90.2076 20.89 90.6239 20.89 91.1789 20.89H95.0639C95.2027 20.89 95.2952 20.9825 95.2952 21.1212V22.1387C95.2952 22.185 95.2952 22.2775 95.2489 22.3237ZM105.979 19.9187C106.118 19.4562 106.21 18.9474 106.21 18.4849C106.21 18.0687 106.164 17.6987 105.84 17.3287C105.702 16.9586 105.563 16.6349 105.285 16.3111C105.054 15.9874 104.73 15.6636 104.314 15.3399C103.898 15.0161 103.435 14.6924 102.834 14.3224L100.984 13.2123C100.731 13.0543 100.5 12.8963 100.29 12.753L100.29 12.7529C100.193 12.6865 100.101 12.6234 100.013 12.5648C99.7352 12.3798 99.504 12.1948 99.319 12.0098L99.3189 12.0098C99.1802 11.8248 99.0414 11.6398 98.949 11.4548C98.8565 11.2698 98.8102 11.0386 98.8102 10.8073C98.8102 10.0673 99.0415 9.55853 99.504 9.28102C99.9665 9.00352 100.706 8.86477 101.77 8.86477C102.372 8.86477 102.973 8.86477 103.62 8.91102C103.915 8.93206 104.181 8.94353 104.427 8.95413C104.721 8.96684 104.987 8.97831 105.239 9.00352H105.285C105.517 9.00352 105.609 8.91102 105.609 8.67976V7.801C105.609 7.616 105.517 7.52349 105.285 7.47724C105.184 7.45183 105.068 7.44038 104.938 7.42755C104.832 7.41703 104.717 7.40558 104.592 7.38474C104.314 7.33849 104.037 7.29224 103.713 7.29224C103.551 7.29224 103.389 7.28068 103.227 7.26912C103.065 7.25755 102.903 7.24599 102.742 7.24599H101.816C100.29 7.24599 99.0877 7.56975 98.2552 8.12476C97.4227 8.67976 97.0064 9.60478 97.0064 10.8073C97.0064 11.6398 97.2377 12.3336 97.7002 12.8886C98.1627 13.4898 98.8565 14.0449 99.7815 14.5999L101.724 15.8024C102.187 16.0799 102.557 16.3111 102.88 16.5424C103.204 16.7736 103.435 17.0049 103.62 17.1899C103.805 17.3749 103.944 17.5599 104.037 17.7912C104.129 17.9762 104.175 18.2074 104.175 18.4849C104.175 18.8549 104.129 19.1787 104.037 19.4562C103.944 19.7337 103.805 20.0112 103.574 20.1962C103.343 20.3812 103.065 20.5662 102.649 20.6587C102.279 20.7975 101.77 20.8437 101.169 20.8437H100.383H99.504C99.3652 20.8437 99.2149 20.8321 99.0646 20.8206C98.9143 20.809 98.764 20.7975 98.6252 20.7975C98.4801 20.7975 98.3351 20.7848 98.1966 20.7728C98.0702 20.7617 97.9493 20.7512 97.8389 20.7512H97.7927C97.7002 20.7512 97.6077 20.7975 97.5614 20.8437C97.5152 20.89 97.4689 20.9825 97.4689 21.075V21.8612V21.8613C97.4689 21.9538 97.4689 22.0462 97.5152 22.0925C97.5522 22.1665 97.6188 22.1813 97.7387 22.2079C97.7686 22.2146 97.8019 22.222 97.8389 22.2312C98.0411 22.2515 98.2433 22.2805 98.4532 22.3107C98.7235 22.3495 99.0066 22.3902 99.319 22.4162C99.874 22.4625 100.521 22.5087 101.215 22.5087C102.187 22.5087 103.019 22.37 103.667 22.1387C104.314 21.9075 104.823 21.5837 105.193 21.2137C105.563 20.8437 105.84 20.3812 105.979 19.9187ZM117.727 8.95739L113.795 8.95739V22.0001C113.795 22.0926 113.749 22.1851 113.703 22.2776C113.657 22.3701 113.564 22.4164 113.425 22.4164H112.315C112.223 22.4164 112.13 22.3701 112.038 22.2776C111.992 22.1851 111.945 22.0926 111.945 22.0001V8.95739H108.014C107.922 8.95739 107.829 8.91114 107.737 8.86489C107.644 8.81864 107.598 8.72614 107.598 8.63364V7.75487C107.598 7.66237 107.644 7.56987 107.737 7.47737C107.829 7.43112 107.922 7.38487 108.014 7.38487L117.727 7.38487C118.004 7.38487 118.097 7.52362 118.097 7.75487V8.63364C118.143 8.81864 118.004 8.95739 117.727 8.95739Z" fill="white"/>
</g>
<defs>
<clipPath id="clip0_861_19400">
<rect width="119" height="30.0769" fill="white"/>
</clipPath>
</defs>
</svg>
